# xmcd
#
# Track frame offsets: 
#        150
#        18169
#        33858
#        54317
#        74583
#        93813
#        110364
#        129857
#        145285
#        161662
#        177836
#        199345
#        215576
#        239537
#        256572
#        272647
#        292951
#        311342
#        326030
#        344479
#
# Disc length: 4799 seconds
#
# Revision: 1
# Processed by: cddbd v1.5.2PL0 Copyright (c) Steve Scherf et al.
# Submitted via: ExactAudioCopy v1.0b1
#
DISCID=1e12bd14
DTITLE=Стас Михайлов - Лучшие песни На бис! 
DYEAR=2010
DGENRE=Shanson
TTITLE0=Моя любовь
TTITLE1=Где ты
TTITLE2=Ветер бродяга
TTITLE3=Жизнь-река
TTITLE4=Душа
TTITLE5=Странник
TTITLE6=Приди ко мне
TTITLE7=Мир без тебя
TTITLE8=Летим (дуэт с Зарой)
TTITLE9=Лети душа
TTITLE10=Мы все
TTITLE11=Родная
TTITLE12=Живой
TTITLE13=Женщина-обман
TTITLE14=Отпусти (дуэт с Таисией Повалий)
TTITLE15=Героям России
TTITLE16=Королева
TTITLE17=Живи и знай
TTITLE18=Петербург-Москва
TTITLE19=Разрушительница
EXTD=
EXTT0=
EXTT1=
EXTT2=
EXTT3=
EXTT4=
EXTT5=
EXTT6=
EXTT7=
EXTT8=
EXTT9=
EXTT10=
EXTT11=
EXTT12=
EXTT13=
EXTT14=
EXTT15=
EXTT16=
EXTT17=
EXTT18=
EXTT19=
PLAYORDER=
